<svg width="40" height="40" viewBox="0 0 40 40" fill="none" xmlns="http://www.w3.org/2000/svg">
<path fill-rule="evenodd" clip-rule="evenodd" d="M20 37.25C20 36.1915 20.8581 35.3334 21.9167 35.3334H37.25C38.3086 35.3334 39.1667 36.1915 39.1667 37.25C39.1667 38.3086 38.3086 39.1667 37.25 39.1667H21.9167C20.8581 39.1667 20 38.3086 20 37.25Z" fill="#323232"/>
<path fill-rule="evenodd" clip-rule="evenodd" d="M36.8167 12.5249C39.9022 9.42734 39.7711 5.35961 37.4672 2.86854C36.3437 1.65389 34.7448 0.878027 32.9337 0.835247C31.116 0.792313 29.2327 1.48747 27.4948 2.94141C27.4504 2.9786 27.4076 3.01777 27.3668 3.05883L2.51003 28.0148C1.43664 29.0923 0.833984 30.5515 0.833984 32.0725V35.3184C0.833984 37.4296 2.54359 39.1667 4.67466 39.1667H7.8924C9.42136 39.1667 10.8874 38.5578 11.9663 37.4745L36.8167 12.5249ZM29.9809 8.10319C29.2325 7.35469 28.0188 7.35469 27.2704 8.10319C26.5219 8.85171 26.5219 10.0653 27.2704 10.8138L29.187 12.7304C29.9355 13.4789 31.1491 13.4789 31.8976 12.7304C32.6461 11.9819 32.6461 10.7684 31.8976 10.0199L29.9809 8.10319Z" fill="#323232"/>
</svg>
