<svg width="22" height="17" viewBox="0 0 22 17" fill="none" xmlns="http://www.w3.org/2000/svg">
<path d="M5.48593 13.1191C3.64093 11.9098 2.18093 10.3369 1.35593 9.3437C1.12523 9.06952 1 8.73224 1 8.38508C1 8.03792 1.12523 7.70064 1.35593 7.42646C2.84893 5.62739 6.43093 1.92308 10.6129 1.92308C12.4889 1.92308 14.2429 2.668 15.7429 3.65293" stroke="#8E8E8E" stroke-width="2" stroke-linecap="round" stroke-linejoin="round"/>
<path d="M8.61292 14.5729C9.26212 14.7513 9.93557 14.8433 10.6129 14.8462C14.7949 14.8462 18.3769 11.1418 19.8699 9.34277C20.1006 9.06835 20.2256 8.73086 20.2255 8.38353C20.2253 8.03621 20.0998 7.69883 19.8689 7.42462C19.3442 6.79276 18.7813 6.18872 18.1829 5.61538M12.7429 6.43415C12.4652 6.17354 12.1344 5.96626 11.7694 5.82426C11.4045 5.68227 11.0127 5.60838 10.6167 5.60685C10.2207 5.60532 9.82827 5.67618 9.46206 5.81534C9.09586 5.95451 8.76314 6.15922 8.48307 6.41768C8.20301 6.67614 7.98116 6.98322 7.83031 7.32122C7.67946 7.65922 7.6026 8.02145 7.60417 8.387C7.60573 8.75256 7.68569 9.11421 7.83943 9.4511C7.99317 9.78798 8.21765 10.0934 8.49992 10.3498L12.7429 6.43415ZM2.61292 15.7692L18.6129 1L2.61292 15.7692Z" stroke="#9E8E8E" stroke-width="2" stroke-linecap="round" stroke-linejoin="round"/>
</svg>
