<svg width="84" height="83" viewBox="0 0 84 83" fill="none" xmlns="http://www.w3.org/2000/svg">
<path d="M10.5 22.5615C10.5 21.1972 11.6435 20.0912 13.0541 20.0912H29.8125C29.8353 17.182 30.1544 13.1936 33.0763 10.4326C35.3759 8.25981 38.5283 6.91663 42 6.91663C45.4717 6.91663 48.6241 8.25981 50.9236 10.4326C53.8454 13.1936 54.1646 17.182 54.1873 20.0912H70.946C72.3565 20.0912 73.5 21.1972 73.5 22.5615C73.5 23.9257 72.3565 25.0317 70.946 25.0317H13.0541C11.6435 25.0317 10.5 23.9257 10.5 22.5615Z" fill="#1C274C"/>
<path fill-rule="evenodd" clip-rule="evenodd" d="M40.5846 76.0833H43.4154C53.1548 76.0833 58.0248 76.0833 61.1909 73.0196C64.3573 69.9555 64.681 64.9299 65.3289 54.8786L66.2623 40.3954C66.6141 34.9416 66.7898 32.2148 65.2011 30.4868C63.6128 28.7588 60.9304 28.7588 55.566 28.7588H28.4341C23.0694 28.7588 20.3871 28.7588 18.7987 30.4868C17.2103 32.2148 17.386 34.9416 17.7376 40.3954L18.6711 54.8786C19.3189 64.9299 19.6429 69.9555 22.8091 73.0196C25.9754 76.0833 30.8451 76.0833 40.5846 76.0833ZM35.862 42.1519C35.7178 40.6513 34.4314 39.5568 32.9888 39.7069C31.5462 39.857 30.4938 41.1946 30.638 42.6952L32.388 60.8968C32.5323 62.3973 33.8186 63.4919 35.2611 63.3418C36.7038 63.1921 37.7562 61.854 37.612 60.3535L35.862 42.1519ZM51.0111 39.7069C52.4538 39.857 53.5062 41.1946 53.362 42.6952L51.612 60.8968C51.4678 62.3973 50.1812 63.4919 48.7389 63.3418C47.2962 63.1921 46.2437 61.854 46.3879 60.3535L48.1379 42.1519C48.2821 40.6513 49.5687 39.5568 51.0111 39.7069Z" fill="#1C274C"/>
</svg>
